<?xml version="1.0" encoding="UTF-8"?>
<svg width="600" height="600" xmlns="http://www.w3.org/2000/svg">
  <defs
     id="defs68">
    <style
       id="style66">.cls-1{fill:#fff;}.cls-2{fill:none;stroke:#000;stroke-miterlimit:10;}</style>
    <clipPath
       clipPathUnits="userSpaceOnUse"
       id="clipPath99">
      <rect
         style="fill:none;stroke:#000000"
         id="rect101"
         width="169.4088"
         height="169.4088"
         x="162.08452"
         y="0.95173484" />
    </clipPath>
    <clipPath
       clipPathUnits="userSpaceOnUse"
       id="clipPath27">
      <rect
         style="fill:none;stroke:#000000;stroke-width:0.47949"
         id="rect29"
         width="287.69418"
         height="287.69418"
         x="176.06247"
         y="0.6209563" />
    </clipPath>
  </defs>
  <g
     id="g73">
    <title
       id="title70">background</title>
    <rect
       fill="none"
       id="canvas_background"
       height="502"
       width="502"
       y="-1"
       x="-1" />
  </g>
  <g
     id="g78"
     transform="matrix(2.0855478,0,0,2.0855478,-367.18671,-1.295034)"
     clip-path="url(#clipPath27)">
    <title
       id="title75">Layer 1</title>
    <path
       stroke="#000000"
       id="svg_19"
       d="m 312.54675,74.82864 -66.2554,-26.53115 v 66.32789 l -9.27865,3.69696 V 44.60053 L 196.34609,28.36288 a 11.09089,11.09089 0 0 0 -4.34937,-0.86987 11.67081,11.67081 0 0 0 -11.59832,11.6708 v 92.93153 a 11.67081,11.67081 0 0 0 11.59832,11.67081 11.09089,11.09089 0 0 0 4.34937,-0.86987 l 32.91023,-13.1206 v 113.37357 l -0.57991,0.50742 a 12.3957,12.3957 0 0 0 -6.01663,8.48128 v 181.73116 l 4.20439,26.38617 a 14.4979,14.4979 0 0 0 14.4979,12.25073 14.4979,14.4979 0 0 0 14.4979,-12.39571 l 4.20439,-26.45866 V 251.92048 c 0,-3.76946 -3.55199,-6.37908 -5.94414,-8.26381 l -0.65241,-0.50742 V 119.91711 L 312.03932,96.503 a 11.59832,11.59832 0 0 0 0,-21.74685 z m -118.73779,-39.2893 35.73732,14.4979 v 71.61962 l -35.73732,14.4979 a 3.76945,3.76945 0 0 1 -1.52228,0 v 0 a 3.98692,3.98692 0 0 1 -2.17468,-0.65241 3.98692,3.98692 0 0 1 -1.66726,-3.26203 V 39.16381 a 3.98692,3.98692 0 0 1 1.66726,-3.26202 3.98692,3.98692 0 0 1 2.17468,-0.65241 3.76945,3.76945 0 0 1 1.52228,0.28996 z m 53.20729,211.52434 0.6524,0.57992 a 18.55731,18.55731 0 0 0 2.46465,2.10219 l 3.04456,2.39216 v 181.22373 l -4.05942,25.73377 a 7.24895,7.24895 0 0 1 -14.49789,0 l -4.05942,-25.5163 V 252.64537 a 15.1503,15.1503 0 0 1 3.11705,-2.89958 36.24475,36.24475 0 0 0 2.89958,-2.53713 l 0.65241,-0.65241 V 126.65863 l 9.27865,-3.69696 V 245.61389 Z M 254.2652,59.75083 310.00962,82.0051 a 3.69696,3.69696 0 0 1 2.39215,3.62448 3.84194,3.84194 0 0 1 -2.39215,3.62447 l -55.74442,22.25428 z"
       class="cls-1"
       style="fill:#000000"
       clip-path="url(#clipPath99)"
       transform="matrix(2,0,0,2,-179.8984,-26.992925)" />
  </g>
</svg>
