<?xml version="1.0" encoding="utf-8"?>
<svg width="1200" height="600" xmlns="http://www.w3.org/2000/svg">
  <defs>
    <style>.cls-1{fill:#fff;}.cls-2{fill:none;stroke:#000;stroke-miterlimit:10;}</style>
  </defs>
  <g style="">
    <title>background</title>
    <rect fill="none" id="canvas_background" height="502" width="502" y="-1" x="-1" style=""/>
  </g>
  <g>
    <title>Layer 1</title>
    <path stroke="#000000" id="svg_19" d="m312.54675,74.82864l-66.2554,-26.53115l0,66.32789l-9.27865,3.69696l0,-73.72181l-40.66661,-16.23765a11.09089,11.09089 0 0 0 -4.34937,-0.86987a11.67081,11.67081 0 0 0 -11.59832,11.6708l0,92.93153a11.67081,11.67081 0 0 0 11.59832,11.67081a11.09089,11.09089 0 0 0 4.34937,-0.86987l32.91023,-13.1206l0,113.37357l-0.57991,0.50742a12.3957,12.3957 0 0 0 -6.01663,8.48128l0,181.73116l4.20439,26.38617a14.4979,14.4979 0 0 0 14.4979,12.25073a14.4979,14.4979 0 0 0 14.4979,-12.39571l4.20439,-26.45866l0,-181.73116c0,-3.76946 -3.55199,-6.37908 -5.94414,-8.26381l-0.65241,-0.50742l0,-123.23214l58.57151,-23.41411a11.59832,11.59832 0 0 0 0,-21.74685l0.50743,0.07249zm-118.73779,-39.2893l35.73732,14.4979l0,71.61962l-35.73732,14.4979a3.76945,3.76945 0 0 1 -1.52228,0l0,0a3.98692,3.98692 0 0 1 -2.17468,-0.65241a3.98692,3.98692 0 0 1 -1.66726,-3.26203l0,-93.07651a3.98692,3.98692 0 0 1 1.66726,-3.26202a3.98692,3.98692 0 0 1 2.17468,-0.65241a3.76945,3.76945 0 0 1 1.52228,0.28996zm53.20729,211.52434l0.6524,0.57992a18.55731,18.55731 0 0 0 2.46465,2.10219l3.04456,2.39216l0,181.22373l-4.05942,25.73377a7.24895,7.24895 0 0 1 -14.49789,0l-4.05942,-25.5163l0,-180.93378a15.1503,15.1503 0 0 1 3.11705,-2.89958a36.24475,36.24475 0 0 0 2.89958,-2.53713l0.65241,-0.65241l0,-119.89762l9.27865,-3.69696l0,122.65222l0.50743,1.44979zm7.24895,-187.31285l55.74442,22.25427a3.69696,3.69696 0 0 1 2.39215,3.62448a3.84194,3.84194 0 0 1 -2.39215,3.62447l-55.74442,22.25428l0,-51.7575z" class="cls-1" style="fill: rgb(0, 0, 0); pointer-events: none;"/>
  </g>
</svg>
